<svg width="170" height="107" viewBox="0 0 170 107" fill="none" xmlns="http://www.w3.org/2000/svg">
<g clip-path="url(#clip0_516_43541)">
<path fill-rule="evenodd" clip-rule="evenodd" d="M94.9004 17.5963L89.8264 8.80453L84.7397 0.000244141L79.6656 8.79197L74.5916 17.5837H78.2841V40.5176L78.4473 40.6808L84.7397 46.9732L84.7774 46.9355C85.5184 46.1945 86.2469 45.4409 86.9502 44.7125C88.3569 43.2556 89.7384 41.8238 91.2079 40.505V17.5837H94.9004V17.5963Z" fill="url(#paint0_linear_516_43541)"/>
<path fill-rule="evenodd" clip-rule="evenodd" d="M77.8444 41.3339L84.2373 47.7268L76.9025 55.5891C74.7799 53.3786 72.6071 51.1807 70.1328 48.7064C70.0826 48.6562 70.0198 48.5934 69.9696 48.5431C69.9319 48.5055 69.8816 48.4678 69.844 48.4301C69.8063 48.3924 69.756 48.3547 69.7184 48.3045C69.6807 48.2794 69.643 48.2417 69.6053 48.204C69.5551 48.1538 69.5049 48.1161 69.4546 48.0784C69.4295 48.0533 69.3918 48.0282 69.3541 47.9905C69.2913 47.9403 69.2411 47.9026 69.1783 47.8524L69.0904 47.777C69.0276 47.7268 68.9648 47.6891 68.902 47.6388C68.8769 47.6137 68.8518 47.6012 68.8266 47.576C68.7638 47.5258 68.6885 47.4756 68.6257 47.4379C68.6006 47.4253 68.5754 47.4002 68.5503 47.3877C68.475 47.3374 68.3996 47.2872 68.3243 47.2369C68.2991 47.2244 68.2866 47.2118 68.2615 47.1993C68.1735 47.1365 68.0731 47.0862 67.9726 47.0234C62.9236 44.1096 56.581 45.9182 53.73 50.8415C52.9262 52.2231 52.5494 53.5544 52.3735 55.0993C52.0219 58.0257 52.2982 60.9018 53.102 63.6021C53.1146 63.6398 53.1271 63.6649 53.1271 63.7026C53.5667 65.147 54.157 66.5285 54.8855 67.8473C55.0111 68.0733 55.1492 68.2994 55.2748 68.5255C56.7568 70.9746 58.7538 73.1223 61.1402 74.8179C61.2029 74.8681 61.2657 74.9183 61.3411 74.956C62.5217 75.7724 63.7902 76.4632 65.1467 77.0409C65.0839 77.0535 65.0336 77.0535 64.9708 77.0535C60.4243 77.5433 55.9782 76.526 52.1977 74.3406C52.0721 74.2652 51.934 74.1899 51.8084 74.1145C51.7707 74.0894 51.733 74.0643 51.6953 74.0517C51.5948 73.9889 51.4944 73.9261 51.3939 73.8633C51.3562 73.8382 51.3311 73.8256 51.2934 73.8005C51.1678 73.7252 51.0422 73.6372 50.9166 73.5493C50.8915 73.5368 50.8664 73.5117 50.8413 73.4991C50.7408 73.4237 50.6403 73.3609 50.5398 73.2856C50.5022 73.2605 50.4645 73.2353 50.4268 73.1977C50.3389 73.1349 50.2384 73.0595 50.1505 72.9967C50.1254 72.9716 50.0877 72.959 50.0626 72.9339C49.9495 72.846 49.8365 72.7581 49.7109 72.6702C49.6732 72.645 49.6355 72.6074 49.5979 72.5822C49.5099 72.5194 49.4346 72.4566 49.3467 72.3813C49.309 72.3436 49.2588 72.3185 49.2211 72.2808C49.1206 72.1929 49.0201 72.1175 48.9196 72.0296C48.8945 72.0045 48.8694 71.9919 48.8568 71.9668C48.7564 71.8789 48.6559 71.7784 48.5429 71.6905C48.5052 71.6528 48.4675 71.6277 48.4298 71.59C48.3545 71.5147 48.2665 71.4393 48.1912 71.364C48.1661 71.3388 48.1284 71.3012 48.1033 71.276C47.9902 71.1756 47.8898 71.0625 47.7767 70.9621C47.7642 70.9495 47.7516 70.9369 47.739 70.9244C47.6762 70.8616 47.6009 70.7862 47.5381 70.7234C47.5255 70.7109 47.513 70.6983 47.5004 70.6732C45.1141 68.1864 43.3055 65.0967 42.351 61.5298C41.61 58.7667 41.4592 55.991 41.8109 53.3158C42.1751 50.5527 43.092 47.9026 44.461 45.5163C47.1613 40.8441 51.6451 37.1893 57.2718 35.6821C62.8985 34.1749 68.6006 35.0918 73.2853 37.7921C74.8804 38.709 76.3498 39.8393 77.656 41.1455L77.8444 41.3339ZM127.103 50.6155C126.149 47.0611 124.34 43.9589 121.954 41.4721C121.941 41.4595 121.929 41.447 121.916 41.4218C121.841 41.3465 121.778 41.2837 121.703 41.2083C121.69 41.1958 121.69 41.1958 121.677 41.1832C121.564 41.0702 121.451 40.9571 121.338 40.8567C121.313 40.8315 121.301 40.819 121.276 40.7939C121.188 40.7059 121.087 40.618 120.987 40.5301C120.962 40.505 120.936 40.4799 120.911 40.4548C120.685 40.2412 120.447 40.0403 120.208 39.8519C120.183 39.8268 120.145 39.8017 120.12 39.7765C120.02 39.7012 119.932 39.6258 119.831 39.5505C119.806 39.5253 119.781 39.5128 119.756 39.4877C119.643 39.3997 119.517 39.2993 119.392 39.2113C119.367 39.1988 119.341 39.1862 119.329 39.1611C119.228 39.0858 119.128 39.0104 119.027 38.935C118.99 38.9099 118.952 38.8848 118.914 38.8597C118.814 38.7843 118.713 38.7215 118.613 38.6462C118.588 38.6336 118.563 38.6085 118.538 38.5959C118.412 38.508 118.286 38.4327 118.161 38.3447C118.123 38.3196 118.085 38.2945 118.06 38.2819C117.96 38.2191 117.872 38.1563 117.771 38.1061C117.734 38.081 117.696 38.0559 117.658 38.0307C117.533 37.9554 117.395 37.88 117.269 37.8047C113.489 35.6193 109.043 34.602 104.496 35.0918C104.433 35.1044 104.383 35.1044 104.32 35.1169C104.458 35.1672 104.584 35.23 104.722 35.2927C104.735 35.2927 104.735 35.3053 104.747 35.3053C104.873 35.3555 104.986 35.4183 105.111 35.4686C105.136 35.4811 105.162 35.4937 105.199 35.5063C105.3 35.5565 105.4 35.6067 105.501 35.657C105.538 35.6695 105.576 35.6947 105.601 35.7072C105.689 35.7575 105.79 35.7951 105.878 35.8454C105.915 35.8705 105.953 35.883 105.991 35.9082C106.078 35.9584 106.166 35.9961 106.254 36.0463C106.292 36.0714 106.33 36.084 106.367 36.1091C106.455 36.1594 106.531 36.197 106.619 36.2473C106.656 36.2724 106.694 36.2975 106.732 36.3101C106.819 36.3603 106.895 36.4106 106.983 36.4608C107.02 36.4859 107.058 36.511 107.096 36.5236C107.184 36.5738 107.259 36.6241 107.347 36.6743C107.385 36.6994 107.422 36.7245 107.46 36.7371C107.548 36.7873 107.636 36.8501 107.711 36.9004C107.736 36.9255 107.774 36.9381 107.812 36.9632C107.9 37.026 107.988 37.0888 108.075 37.139C108.101 37.1516 108.126 37.1767 108.151 37.1893C108.226 37.2395 108.302 37.2897 108.377 37.3525C108.402 37.3651 108.427 37.3902 108.452 37.4028C108.465 37.4153 108.477 37.4153 108.49 37.4279C108.829 37.6791 109.168 37.9303 109.495 38.194C109.507 38.2066 109.52 38.2191 109.545 38.2317C109.633 38.3071 109.721 38.3824 109.821 38.4578C109.846 38.4829 109.871 38.4955 109.897 38.5206C109.972 38.5834 110.06 38.6587 110.135 38.7215C110.16 38.7466 110.198 38.7718 110.223 38.7969C110.298 38.8597 110.374 38.9225 110.437 38.9853C110.462 39.0104 110.499 39.0481 110.537 39.0732C110.612 39.136 110.675 39.1988 110.738 39.2616C110.776 39.2867 110.801 39.3244 110.839 39.3495C110.901 39.4123 110.977 39.4751 111.039 39.5379L111.127 39.6258C111.19 39.6886 111.253 39.764 111.328 39.8268C111.353 39.8519 111.391 39.8896 111.416 39.9272C111.479 39.99 111.542 40.0654 111.605 40.1282C111.63 40.1533 111.655 40.191 111.693 40.2161C111.755 40.2915 111.818 40.3668 111.894 40.4296C111.919 40.4547 111.944 40.4799 111.969 40.5175C112.044 40.5929 112.107 40.6808 112.182 40.7562C112.195 40.7813 112.22 40.8064 112.233 40.819C112.321 40.9195 112.408 41.0199 112.484 41.1204L112.496 41.133C112.672 41.3465 112.848 41.56 113.011 41.7861C113.024 41.7986 113.036 41.8112 113.049 41.8237C113.124 41.9117 113.187 42.0121 113.263 42.1001C113.288 42.1252 113.3 42.1629 113.325 42.188C113.388 42.2633 113.438 42.3513 113.501 42.4266C113.526 42.4643 113.551 42.502 113.577 42.5271C113.627 42.6024 113.677 42.6778 113.727 42.7532C113.752 42.7908 113.777 42.8285 113.803 42.8662C113.853 42.9416 113.903 43.0169 113.953 43.0923C113.978 43.1299 114.004 43.1802 114.029 43.2179C114.079 43.2932 114.117 43.3686 114.167 43.4439C114.192 43.4816 114.217 43.5319 114.242 43.5695C114.292 43.6449 114.33 43.7203 114.38 43.7956C114.393 43.8207 114.405 43.8333 114.418 43.8584C114.431 43.8835 114.443 43.8961 114.456 43.9212C114.481 43.9714 114.506 44.0091 114.531 44.0594C114.544 44.0845 114.569 44.1222 114.581 44.1473C114.619 44.2226 114.669 44.298 114.707 44.3859C114.732 44.4236 114.757 44.4738 114.782 44.5115C114.807 44.5492 114.82 44.5869 114.845 44.6371C114.895 44.725 114.933 44.8004 114.971 44.8883C114.983 44.926 115.008 44.9637 115.021 44.9888C115.071 45.0892 115.121 45.1772 115.159 45.2776C115.172 45.3028 115.184 45.3279 115.197 45.353C115.322 45.6042 115.435 45.8428 115.536 46.1066C115.548 46.1191 115.548 46.1317 115.548 46.1443C115.599 46.2573 115.649 46.3703 115.687 46.4834C115.699 46.521 115.712 46.5462 115.724 46.5838C115.762 46.6718 115.8 46.7722 115.837 46.8602C115.85 46.8978 115.862 46.9481 115.888 46.9858C115.925 47.0737 115.95 47.1616 115.988 47.2369C116.001 47.2872 116.026 47.3249 116.038 47.3751C116.063 47.463 116.101 47.5384 116.126 47.6263C116.139 47.6765 116.164 47.7142 116.176 47.7644C116.201 47.8398 116.227 47.9277 116.264 48.0156C116.277 48.0659 116.289 48.1161 116.315 48.1538C116.34 48.2166 116.352 48.2794 116.377 48.3422C116.39 48.405 116.415 48.4552 116.428 48.518C116.428 48.5306 116.44 48.5431 116.44 48.5557C116.465 48.6436 116.49 48.719 116.515 48.8069C116.528 48.8571 116.541 48.8948 116.553 48.9451C116.578 49.033 116.603 49.1209 116.629 49.2088C116.641 49.259 116.654 49.2967 116.666 49.347C116.691 49.4349 116.716 49.5354 116.729 49.6233C116.742 49.6609 116.754 49.6986 116.754 49.7363C116.779 49.8368 116.804 49.9498 116.829 50.0503C116.829 50.0754 116.842 50.1131 116.842 50.1382C116.93 50.5401 117.005 50.9546 117.068 51.3691C117.068 51.3942 117.081 51.4067 117.081 51.4319C117.093 51.5449 117.118 51.6579 117.131 51.771C117.131 51.8086 117.143 51.8463 117.143 51.8714C117.156 51.9719 117.169 52.0724 117.181 52.1854C117.181 52.2231 117.194 52.2608 117.194 52.311C117.206 52.4115 117.219 52.4994 117.219 52.5999C117.219 52.6376 117.231 52.6878 117.231 52.7255C117.244 52.826 117.244 52.9139 117.257 53.0144C117.257 53.0646 117.269 53.1023 117.269 53.14C117.282 53.2404 117.282 53.3284 117.282 53.4288C117.282 53.4791 117.282 53.5167 117.294 53.5544C117.294 53.6549 117.307 53.7428 117.307 53.8433C117.307 53.881 117.307 53.9312 117.307 53.9689C117.307 54.0694 117.307 54.1698 117.307 54.2703C117.307 54.308 117.307 54.3457 117.307 54.3834C117.307 54.4964 117.307 54.5969 117.307 54.7099C117.307 54.7476 117.307 54.7727 117.307 54.8104C117.294 55.5263 117.244 56.2422 117.169 56.9581C117.143 57.2344 117.093 57.4981 117.056 57.7493C116.867 58.8043 116.541 59.8217 116.026 60.8139C116.013 60.8264 116.013 60.8516 116.001 60.8641C115.975 60.9144 115.95 60.952 115.925 60.9897C115.888 61.0651 115.85 61.1404 115.8 61.2032C114.544 63.3635 112.622 64.9334 110.424 65.7498C110.11 65.8628 109.796 65.9633 109.47 66.0512C107.372 66.6164 105.199 66.5159 103.19 65.7749H103.177C103.102 65.7498 103.026 65.7247 102.951 65.687C102.939 65.687 102.926 65.6745 102.926 65.6745C102.851 65.6493 102.788 65.6242 102.725 65.5865C102.712 65.574 102.687 65.574 102.675 65.5614C102.612 65.5363 102.549 65.5112 102.499 65.4861C102.474 65.4735 102.436 65.4609 102.411 65.4484C102.361 65.4233 102.311 65.3981 102.26 65.3856C102.21 65.373 102.172 65.3353 102.122 65.3102C102.097 65.2977 102.059 65.2851 102.034 65.26C101.871 65.1846 101.72 65.0967 101.57 65.0088C101.519 64.9837 101.469 64.946 101.406 64.9209C101.369 64.8958 101.318 64.8706 101.281 64.8455C101.243 64.8204 101.205 64.7953 101.168 64.7702C101.105 64.7325 101.042 64.6948 100.992 64.6571C100.967 64.6446 100.942 64.6194 100.916 64.6069C100.841 64.5567 100.778 64.5064 100.703 64.4562C100.69 64.4436 100.665 64.4311 100.653 64.4185C100.577 64.3683 100.502 64.3055 100.427 64.2552C100.414 64.2427 100.402 64.2301 100.389 64.2175C100.314 64.1547 100.238 64.1045 100.163 64.0417C100.15 64.0291 100.125 64.0166 100.113 64.004C100.05 63.9538 99.9745 63.891 99.9117 63.8282C99.8866 63.8031 99.8614 63.778 99.8238 63.7528C99.7735 63.7152 99.7233 63.6649 99.673 63.6272C99.6228 63.577 99.5726 63.5393 99.5223 63.4891C99.4721 63.4388 99.4093 63.3886 99.3591 63.3258L92.5643 56.5311L85.2797 64.3431L91.8107 70.8741C93.1295 72.1929 94.6115 73.3358 96.2192 74.2652C100.891 76.9655 106.606 77.8824 112.233 76.3752C117.859 74.8681 122.343 71.2258 125.043 66.5411C126.412 64.1673 127.329 61.5172 127.694 58.7415C127.995 56.1668 127.844 53.3786 127.103 50.6155Z" fill="url(#paint1_linear_516_43541)"/>
<path fill-rule="evenodd" clip-rule="evenodd" d="M99.5856 63.6779C99.5603 63.6526 99.535 63.6273 99.4971 63.6021C99.5224 63.6273 99.5603 63.6526 99.5856 63.6779Z" fill="url(#paint2_linear_516_43541)"/>
<path fill-rule="evenodd" clip-rule="evenodd" d="M103.152 35.3178C103.139 35.3053 103.127 35.2927 103.114 35.2927C102.499 35.4058 101.871 35.5314 101.256 35.7072C94.2724 37.5786 90.2282 42.728 85.3676 47.6011C82.5292 50.6406 79.6907 53.68 76.8522 56.732C73.9635 59.6207 69.6053 65.0465 65.4481 66.1643C62.7603 66.8802 59.947 66.5159 57.5355 65.1218C55.5511 63.9789 54.0314 62.2582 53.1648 60.1859C53.9309 67.4956 59.0678 73.9387 66.3147 76.8525C66.3273 76.8651 66.3398 76.8776 66.3524 76.8776C66.9678 76.7646 67.5958 76.639 68.2112 76.4631C75.1944 74.5918 79.2385 69.4423 84.0991 64.5692L92.602 55.4509C95.4907 52.5622 99.8489 47.1239 104.019 46.0186C106.706 45.3027 109.52 45.667 111.931 47.0611C113.916 48.204 115.435 49.9247 116.315 51.997C115.536 44.6748 110.412 38.2317 103.152 35.3178Z" fill="#00A6EA"/>
<path d="M0 92.8784H4.28283V106.707H0V92.8784ZM8.955 92.8784H12.949L18.1486 100.527V92.8784H22.1803V106.707H18.1486L12.9741 99.1205V106.707H8.955V92.8784ZM26.6264 92.8784H37.189V95.855H30.9218V98.2665H36.2722V101.055H30.9218V106.707H26.6264V92.8784ZM41.2332 92.8784H45.516V106.707H41.2332V92.8784ZM50.2008 92.8784H54.1947L59.3944 100.527V92.8784H63.426V106.707H59.3944L54.2198 99.1205V106.707H50.2008V92.8784Z" fill="url(#paint3_linear_516_43541)"/>
<path d="M68.0103 92.8783H72.2931V106.706H68.0103V92.8783ZM86.1463 101.055L89.8891 102.185C89.6379 103.24 89.236 104.107 88.6959 104.81C88.1559 105.513 87.4902 106.041 86.6864 106.405C85.8826 106.769 84.8653 106.945 83.6219 106.945C82.1147 106.945 80.8964 106.732 79.9419 106.292C78.9874 105.852 78.171 105.086 77.4802 103.994C76.7894 102.888 76.4378 101.482 76.4378 99.7735C76.4378 97.4877 77.0406 95.7293 78.2589 94.4985C79.4772 93.2676 81.1978 92.6522 83.4209 92.6522C85.1667 92.6522 86.5357 93.0039 87.5279 93.7072C88.5201 94.4106 89.2611 95.4907 89.7509 96.9476L85.9831 97.7891C85.8449 97.3621 85.7067 97.0606 85.5686 96.8597C85.33 96.5331 85.0411 96.2819 84.6894 96.1061C84.3377 95.9303 83.961 95.8424 83.5339 95.8424C82.5668 95.8424 81.8258 96.2317 81.3109 97.0104C80.9215 97.5881 80.7206 98.4924 80.7206 99.7358C80.7206 101.268 80.9592 102.323 81.4239 102.888C81.8886 103.453 82.5417 103.742 83.3832 103.742C84.1996 103.742 84.815 103.516 85.242 103.052C85.6565 102.587 85.9579 101.921 86.1463 101.055ZM105.136 102.7C105.036 102.499 104.835 102.21 104.534 101.846C104.232 101.469 104.006 101.23 103.855 101.117C103.617 100.954 103.253 100.778 102.738 100.602C103.378 100.452 103.881 100.276 104.245 100.05C104.822 99.6982 105.262 99.2586 105.589 98.6934C105.915 98.1408 106.078 97.4751 106.078 96.709C106.078 95.8298 105.865 95.0888 105.438 94.4734C105.011 93.8579 104.446 93.4435 103.755 93.2174C103.052 92.9913 102.047 92.8783 100.728 92.8783H93.6067V106.706H97.9021V101.105H98.2789C98.6683 101.105 99.0199 101.205 99.3214 101.419C99.5474 101.582 99.8112 101.934 100.1 102.486L102.386 106.706H107.209L105.136 102.7ZM101.519 97.8645C101.343 98.1031 101.105 98.2412 100.829 98.304C100.276 98.4296 99.8866 98.4924 99.6982 98.4924H97.9021V95.6791H99.7735C100.552 95.6791 101.08 95.7921 101.369 96.0307C101.645 96.2694 101.796 96.6085 101.796 97.0606C101.796 97.3621 101.708 97.6258 101.519 97.8645ZM110.148 92.8783H121.602V95.8298H114.431V98.0277H121.075V100.854H114.431V103.579H121.803V106.706H110.148V92.8783ZM134.162 92.8908H129.502L124.302 106.719H128.661L129.339 104.433H134.187L134.878 106.719H139.349L134.162 92.8908ZM130.268 101.431L131.775 96.4578L133.308 101.431H130.268ZM141.547 102.135L145.616 101.884C145.704 102.549 145.88 103.052 146.156 103.391C146.596 103.956 147.224 104.232 148.04 104.232C148.656 104.232 149.12 104.094 149.447 103.805C149.773 103.516 149.937 103.19 149.937 102.813C149.937 102.449 149.773 102.135 149.459 101.846C149.145 101.557 148.417 101.293 147.274 101.042C145.403 100.615 144.059 100.062 143.267 99.359C142.464 98.6557 142.062 97.7765 142.062 96.6838C142.062 95.9679 142.263 95.3023 142.677 94.6743C143.092 94.0463 143.707 93.5439 144.536 93.1797C145.365 92.8155 146.495 92.6396 147.94 92.6396C149.711 92.6396 151.054 92.9662 151.984 93.6193C152.913 94.2724 153.466 95.3274 153.642 96.7592L149.61 96.9978C149.497 96.3699 149.284 95.9177 148.932 95.6414C148.593 95.3525 148.115 95.2144 147.513 95.2144C147.01 95.2144 146.646 95.3148 146.395 95.5284C146.144 95.7419 146.018 95.9931 146.018 96.2945C146.018 96.5206 146.118 96.709 146.332 96.8848C146.533 97.0732 147.01 97.2365 147.764 97.3997C149.635 97.8017 150.966 98.2036 151.783 98.618C152.587 99.0325 153.177 99.5349 153.541 100.15C153.905 100.766 154.094 101.444 154.094 102.198C154.094 103.089 153.843 103.906 153.353 104.647C152.863 105.4 152.172 105.965 151.293 106.355C150.414 106.744 149.309 106.932 147.965 106.932C145.616 106.932 143.983 106.48 143.079 105.576C142.175 104.672 141.672 103.529 141.547 102.135ZM157.811 92.8783H169.266V95.8298H162.094V98.0277H168.738V100.854H162.094V103.579H169.467V106.706H157.811V92.8783Z" fill="url(#paint4_linear_516_43541)"/>
</g>
<defs>
<linearGradient id="paint0_linear_516_43541" x1="74.5916" y1="32.2111" x2="94.893" y2="31.8223" gradientUnits="userSpaceOnUse">
<stop offset="0.0541586" stop-color="#FF8C08"/>
<stop offset="0.4969" stop-color="#F90035"/>
<stop offset="0.7714" stop-color="#FFAD00"/>
</linearGradient>
<linearGradient id="paint1_linear_516_43541" x1="18.4999" y1="92.7586" x2="122.088" y2="35.397" gradientUnits="userSpaceOnUse">
<stop offset="0.3548" stop-color="#FF8C08"/>
<stop offset="0.5034" stop-color="#FB122E"/>
<stop offset="0.7443" stop-color="#F40034"/>
<stop offset="0.9814" stop-color="#8400A2"/>
</linearGradient>
<linearGradient id="paint2_linear_516_43541" x1="99.55" y1="63.6239" x2="99.5331" y2="63.6535" gradientUnits="userSpaceOnUse">
<stop offset="0.1888" stop-color="#00AFC7"/>
<stop offset="0.8903" stop-color="#FCFF39"/>
</linearGradient>
<linearGradient id="paint3_linear_516_43541" x1="-13.272" y1="83.7418" x2="84.1591" y2="118.518" gradientUnits="userSpaceOnUse">
<stop offset="0.3008" stop-color="#FFB90B"/>
<stop offset="0.8939" stop-color="#FF3D1D"/>
</linearGradient>
<linearGradient id="paint4_linear_516_43541" x1="192.549" y1="77.3848" x2="82.7596" y2="110.724" gradientUnits="userSpaceOnUse">
<stop stop-color="#006BE0"/>
<stop offset="0.5339" stop-color="#00B0EB"/>
</linearGradient>
<clipPath id="clip0_516_43541">
<rect width="169.479" height="106.945" fill="white"/>
</clipPath>
</defs>
</svg>
