<svg width="68" height="49" viewBox="0 0 68 49" fill="none" xmlns="http://www.w3.org/2000/svg">
<g clip-path="url(#clip0_516_7976)">
<path d="M67.3157 11.2545C67.3157 11.2545 66.653 6.55264 64.6109 4.47991C62.0256 1.76355 59.1252 1.75264 57.8 1.58901C48.2843 0.901734 34.0109 0.901733 34.0109 0.901733H33.9783C33.9783 0.901733 19.7048 0.901734 10.1891 1.58901C8.8639 1.75264 5.96358 1.76355 3.37828 4.47991C1.3361 6.55264 0.673483 11.2545 0.673483 11.2545C0.673483 11.2545 -1.29493e-08 16.7745 -1.29493e-08 22.3054V27.4872C-1.29493e-08 33.0072 0.684345 38.5272 0.684345 38.5272C0.684345 38.5272 1.34696 43.229 3.38914 45.3017C5.97444 48.0181 9.37444 47.9308 10.8843 48.2145C16.3157 48.7381 34 48.9017 34 48.9017C34 48.9017 48.2843 48.8799 57.8 48.1926C59.1252 48.029 62.0256 48.0181 64.6109 45.3017C66.653 43.229 67.3157 38.5272 67.3157 38.5272C67.3157 38.5272 68 33.0072 68 27.4872V22.3054C68 16.7745 67.3157 11.2545 67.3157 11.2545Z" fill="#FC0D1C"/>
<path d="M26.9824 14.5707V33.7489L45.3511 24.1925L26.9824 14.5707Z" fill="#EAEAEA"/>
</g>
<defs>
<clipPath id="clip0_516_7976">
<rect width="68" height="48" fill="white" transform="translate(0 0.901733)"/>
</clipPath>
</defs>
</svg>
